<svg width="41" height="41" fill="none" xmlns="http://www.w3.org/2000/svg"><g clip-path="url(#clip0)"><path d="M33.722 12.654c-.58 0-1.131.12-1.632.338a4.147 4.147 0 00-3.848-2.631c-.647 0-1.26.15-1.807.419a4.14 4.14 0 00-3.672-2.246c-.469 0-.919.08-1.34.225V4.17C21.425 1.87 19.568 0 17.284 0c-2.283 0-4.14 1.87-4.14 4.17v16.515l-2.982-3.411a4.15 4.15 0 00-2.998-1.292H7.14a4.095 4.095 0 00-2.919 1.205c-1.369 1.37-1.445 3.402-.207 5.578 1.602 2.815 3.343 5.469 4.88 7.81 1.123 1.712 2.184 3.329 2.959 4.665.672 1.16 2.457 4.922 2.476 4.96a1.4 1.4 0 001.264.8h17.708a1.4 1.4 0 001.333-.971c.33-1.027 3.228-10.132 3.228-13.649v-9.557c0-2.3-1.858-4.17-4.14-4.17zm-1.339 4.17c0-.756.6-1.37 1.34-1.37.738 0 1.339.614 1.339 1.37v9.556c0 2.337-1.796 8.62-2.787 11.82H16.478c-.581-1.209-1.67-3.447-2.202-4.365-.812-1.4-1.89-3.045-3.033-4.786l-.007-.01c-1.513-2.307-3.229-4.922-4.787-7.66-.407-.714-.78-1.679-.246-2.212.249-.25.584-.38.946-.384.353.002.685.135.94.376l5.4 6.178a1.4 1.4 0 002.455-.922V4.17c0-.755.6-1.368 1.34-1.368.738 0 1.34.613 1.34 1.368v13.075a1.4 1.4 0 002.8 0v-4.541c0-.755.6-1.368 1.34-1.368.738 0 1.339.613 1.339 1.368v6.367a1.4 1.4 0 102.8 0v-4.54c0-.755.601-1.368 1.34-1.368.739 0 1.34.613 1.34 1.368v6.368a1.4 1.4 0 002.8 0v-4.075z" fill="#EDF2F7"/><path d="M32.383 16.823c0-.755.6-1.369 1.34-1.369.738 0 1.339.614 1.339 1.37v9.556c0 2.337-1.796 8.62-2.787 11.82H16.478c-.581-1.209-1.67-3.447-2.202-4.365-.812-1.4-1.89-3.045-3.033-4.786l-.007-.01c-1.513-2.307-3.229-4.922-4.787-7.66-.407-.714-.78-1.679-.246-2.212.249-.25.584-.38.946-.384.353.002.685.135.94.376l5.4 6.178a1.4 1.4 0 002.455-.922V4.17c0-.755.6-1.368 1.34-1.368.738 0 1.34.613 1.34 1.368v13.075a1.4 1.4 0 002.8 0v-4.541c0-.755.6-1.368 1.34-1.368.738 0 1.339.613 1.339 1.368v6.367a1.4 1.4 0 102.8 0v-4.54c0-.755.601-1.368 1.34-1.368.739 0 1.34.613 1.34 1.368v6.368a1.4 1.4 0 002.8 0v-4.075z" fill="#EDF2F7"/><path d="M33.722 12.654c-.58 0-1.131.12-1.632.338a4.147 4.147 0 00-3.848-2.631c-.647 0-1.26.15-1.807.419a4.14 4.14 0 00-3.672-2.246c-.469 0-.919.08-1.34.225V4.17C21.425 1.87 19.568 0 17.284 0c-2.283 0-4.14 1.87-4.14 4.17v16.515l-2.982-3.411a4.15 4.15 0 00-2.998-1.292H7.14a4.095 4.095 0 00-2.919 1.205c-1.369 1.37-1.445 3.402-.207 5.578 1.602 2.815 3.343 5.469 4.88 7.81 1.123 1.712 2.184 3.329 2.959 4.665.672 1.16 2.457 4.922 2.476 4.96a1.4 1.4 0 001.264.8h17.708a1.4 1.4 0 001.333-.971c.33-1.027 3.228-10.132 3.228-13.649v-9.557c0-2.3-1.858-4.17-4.14-4.17zm-1.339 4.17c0-.756.6-1.37 1.34-1.37.738 0 1.339.614 1.339 1.37v9.556c0 2.337-1.796 8.62-2.787 11.82H16.478c-.581-1.209-1.67-3.447-2.202-4.365-.813-1.403-1.895-3.051-3.04-4.796-1.513-2.307-3.229-4.922-4.787-7.66-.407-.714-.78-1.679-.246-2.212.249-.25.584-.38.946-.384.353.002.685.135.94.376l5.4 6.178a1.4 1.4 0 002.455-.922V4.17c0-.755.6-1.368 1.34-1.368.738 0 1.34.613 1.34 1.368v13.075a1.4 1.4 0 002.8 0v-4.541c0-.755.6-1.368 1.34-1.368.738 0 1.339.613 1.339 1.368v6.367a1.4 1.4 0 102.8 0v-4.54c0-.755.601-1.368 1.34-1.368.739 0 1.34.613 1.34 1.368v6.368a1.4 1.4 0 002.8 0v-4.075z" fill="#718096"/></g><defs><clipPath id="clip0"><path fill="#fff" d="M0 0h41v41H0z"/></clipPath></defs></svg>