<svg width="100" height="100" xmlns="http://www.w3.org/2000/svg"><path d="M75.897 52.661H24.103a4.512 4.512 0 01-4.506-4.506V15.63a4.511 4.511 0 014.506-4.507h51.794a4.511 4.511 0 014.506 4.507v32.524a4.511 4.511 0 01-4.506 4.506zM24.103 13.468a2.165 2.165 0 00-2.163 2.163v32.524a2.165 2.165 0 002.163 2.162h51.794a2.165 2.165 0 002.162-2.162V15.63a2.165 2.165 0 00-2.162-2.163H24.103z"/><path d="M75.897 81.893H24.103a4.512 4.512 0 01-4.506-4.507V54.824a4.512 4.512 0 014.506-4.506h51.794a4.512 4.512 0 014.506 4.506v22.562a4.511 4.511 0 01-4.506 4.507zM24.103 52.66a2.165 2.165 0 00-2.163 2.163v22.562a2.165 2.165 0 002.163 2.163h51.794a2.165 2.165 0 002.162-2.163V54.824a2.165 2.165 0 00-2.162-2.163H24.103z"/><path d="M95.494 81.893H82.566a4.511 4.511 0 01-4.506-4.507V37.844a4.511 4.511 0 014.506-4.506h12.928A4.512 4.512 0 01100 37.844v39.542a4.512 4.512 0 01-4.506 4.507zM82.566 35.68a2.165 2.165 0 00-2.163 2.163v39.542a2.165 2.165 0 002.163 2.163h12.927a2.165 2.165 0 002.163-2.163V37.844a2.165 2.165 0 00-2.163-2.163H82.566zM17.434 81.893H4.507A4.512 4.512 0 010 77.386V37.844a4.512 4.512 0 014.506-4.506h12.928a4.512 4.512 0 014.506 4.506v39.542a4.511 4.511 0 01-4.506 4.507zM4.506 35.68a2.165 2.165 0 00-2.162 2.163v39.542a2.165 2.165 0 002.162 2.163h12.928a2.165 2.165 0 002.162-2.163V37.844a2.165 2.165 0 00-2.162-2.163H4.506z"/><path d="M79.231 67.277H20.77a1.172 1.172 0 010-2.344h58.46a1.172 1.172 0 010 2.344zM10.97 88.876a4.22 4.22 0 01-4.1-3.206l-1.164-4.667a1.172 1.172 0 011.137-1.455H15.1a1.172 1.172 0 011.137 1.455l-1.164 4.667a4.22 4.22 0 01-4.102 3.205zm-2.628-6.983l.8 3.211a1.884 1.884 0 003.656 0l.8-3.211H8.343zm80.688 6.983a4.22 4.22 0 01-4.102-3.204l-1.164-4.668a1.172 1.172 0 011.137-1.455h8.257a1.172 1.172 0 011.137 1.455l-1.164 4.668a4.22 4.22 0 01-4.101 3.204zm-2.63-6.983l.801 3.211a1.884 1.884 0 003.655 0l.801-3.211H86.4z"/></svg>