<svg width="100" height="100" xmlns="http://www.w3.org/2000/svg"><g clip-path="url(#clip0)"><path d="M67.788 91.13H32.212a1.172 1.172 0 01-1.172-1.171V62.713c0-.647.525-1.172 1.172-1.172h35.576c.647 0 1.172.524 1.172 1.172v27.245c0 .647-.525 1.171-1.172 1.171zm-34.404-2.343h33.232V63.886H33.384v24.9z"/><path d="M67.788 96.145H32.212a1.172 1.172 0 01-1.172-1.172v-5.015c0-.647.525-1.172 1.172-1.172h35.576c.647 0 1.172.525 1.172 1.172v5.015c0 .647-.525 1.172-1.172 1.172zM33.384 93.8h33.232v-2.67H33.384v2.67zm34.404-29.914H32.212a1.172 1.172 0 01-1.172-1.172V51.162c0-.647.525-1.172 1.172-1.172h35.576c.647 0 1.172.525 1.172 1.172v11.552c0 .647-.525 1.172-1.172 1.172zm-34.404-2.344h33.232v-9.208H33.384v9.208z"/><path d="M50 60.736a3.798 3.798 0 110-7.596 3.798 3.798 0 010 7.596zm0-5.252a1.454 1.454 0 100 2.908 1.454 1.454 0 000-2.908zm9.867 5.252a3.798 3.798 0 110-7.596 3.798 3.798 0 010 7.596zm0-5.252a1.454 1.454 0 100 2.908 1.454 1.454 0 000-2.908zm-19.734 5.252a3.798 3.798 0 110-7.596 3.798 3.798 0 010 7.596zm0-5.252a1.454 1.454 0 100 2.908 1.454 1.454 0 000-2.908zm20.776 15.253H39.092a2.756 2.756 0 010-5.512h21.817a2.756 2.756 0 11.002 5.512h-.002zm-21.817-3.169a.412.412 0 000 .825h21.817a.412.412 0 100-.825H39.092z"/><path d="M59.867 87.389H40.133a1.172 1.172 0 01-1.172-1.172V69.565c0-.647.525-1.172 1.172-1.172h19.734c.647 0 1.172.525 1.172 1.172v16.652c0 .647-.525 1.172-1.172 1.172zm-18.562-2.344h17.39V70.737h-17.39v14.308zm.886-32.711a1.172 1.172 0 01-1.172-1.172v-2.908a1.172 1.172 0 012.344 0v2.908c0 .648-.524 1.172-1.172 1.172zm5.556 0a1.172 1.172 0 01-1.172-1.172v-1.736h-1.563a1.172 1.172 0 010-2.344h2.735c.647 0 1.172.525 1.172 1.172v2.908c0 .648-.525 1.172-1.172 1.172zm-11.111 0a1.172 1.172 0 01-1.172-1.172v-2.908c0-.647.524-1.172 1.172-1.172h2.734a1.172 1.172 0 010 2.344h-1.563v1.736a1.17 1.17 0 01-1.171 1.172zm21.173 0a1.172 1.172 0 01-1.172-1.172v-2.908a1.172 1.172 0 012.344 0v2.908c0 .648-.525 1.172-1.172 1.172zm-5.556 0a1.172 1.172 0 01-1.172-1.172v-2.908c0-.647.525-1.172 1.172-1.172h2.735a1.172 1.172 0 010 2.344h-1.563v1.736c0 .648-.524 1.172-1.172 1.172zm11.111 0a1.172 1.172 0 01-1.171-1.172v-1.736H60.63a1.172 1.172 0 010-2.344h2.734c.648 0 1.172.525 1.172 1.172v2.908c0 .648-.524 1.172-1.172 1.172zm10.088 4.268h-2.098a1.172 1.172 0 010-2.344h2.098a1.172 1.172 0 010 2.344z"/><path d="M77.018 96.145h-9.23a1.172 1.172 0 01-1.172-1.172v-43.81c0-.648.525-1.172 1.172-1.172h9.23c.647 0 1.172.524 1.172 1.171v43.81c0 .648-.525 1.173-1.172 1.173zM68.96 93.8h6.886V52.334H68.96v41.467z"/><path d="M98.828 74.24h-21.81a1.172 1.172 0 01-1.172-1.172V51.162c0-.647.525-1.172 1.172-1.172h21.81c.647 0 1.172.525 1.172 1.172v21.906c0 .647-.525 1.172-1.172 1.172zM78.19 71.896h19.466V52.334H78.19v19.562z"/><path d="M90.734 56.602h-5.621a1.172 1.172 0 010-2.344h5.62a1.172 1.172 0 010 2.344zm-71.232 0h-5.62a1.172 1.172 0 010-2.344h5.62a1.172 1.172 0 010 2.344zm79.326 39.543h-21.81a1.172 1.172 0 01-1.172-1.172V73.068c0-.647.525-1.172 1.172-1.172h21.81c.647 0 1.172.524 1.172 1.172v21.905c0 .647-.525 1.172-1.172 1.172zM78.19 93.8h19.466V74.24H78.19V93.8z"/><path d="M90.734 78.507h-5.621a1.172 1.172 0 010-2.344h5.62a1.172 1.172 0 010 2.344zM16.692 96.145H1.172A1.172 1.172 0 010 94.973v-32.26c0-.646.525-1.171 1.172-1.171h15.52c.647 0 1.172.524 1.172 1.172v32.259c0 .647-.525 1.172-1.172 1.172zM2.344 93.8H15.52V63.886H2.344V93.8z"/><path d="M32.212 96.145h-15.52a1.172 1.172 0 01-1.172-1.172v-32.26c0-.646.525-1.171 1.172-1.171h15.52c.647 0 1.172.524 1.172 1.172v32.259c0 .647-.525 1.172-1.172 1.172zM17.864 93.8H31.04V63.886H17.864V93.8z"/><path d="M20.398 81.966a1.172 1.172 0 01-1.172-1.172v-3.901a1.172 1.172 0 012.343 0v3.901c0 .647-.524 1.172-1.171 1.172zm-7.412 0a1.172 1.172 0 01-1.171-1.172v-3.901a1.172 1.172 0 012.343 0v3.901c0 .647-.524 1.172-1.171 1.172zm19.226-18.08H1.172A1.172 1.172 0 010 62.714V51.162c0-.647.525-1.172 1.172-1.172h31.04c.647 0 1.172.525 1.172 1.172v11.552c0 .647-.525 1.172-1.172 1.172zM2.344 61.542H31.04v-9.208H2.344v9.208zm64.123-33.765H33.533a2.496 2.496 0 01-2.493-2.493V21.92a2.495 2.495 0 012.493-2.493h32.934a2.496 2.496 0 012.493 2.493v3.365a2.496 2.496 0 01-2.493 2.493zM33.533 21.77a.15.15 0 00-.15.149v3.365a.15.15 0 00.15.15h32.934a.15.15 0 00.15-.15V21.92a.15.15 0 00-.15-.15H33.533z"/><path d="M64.024 21.77H35.976a2.47 2.47 0 01-1.522-4.414l.9-.705A14.668 14.668 0 0041.02 5.028c0-.648.525-1.172 1.172-1.172H57.81c.647 0 1.172.524 1.172 1.172a14.667 14.667 0 005.664 11.623l.9.705a2.469 2.469 0 01-1.52 4.414zM43.324 6.2a16.984 16.984 0 01-6.525 12.297l-.9.704a.126.126 0 00.077.225h28.048a.126.126 0 00.078-.224l-.9-.705A16.984 16.984 0 0156.675 6.2H43.324zM95.2 27.777H76.552a2.937 2.937 0 010-5.874H95.2a2.937 2.937 0 110 5.874zm-18.648-3.53a.593.593 0 000 1.186H95.2a.593.593 0 000-1.186H76.552zm-53.104 3.53H4.8a2.937 2.937 0 010-5.874h18.648a2.937 2.937 0 110 5.874zM4.8 24.247a.593.593 0 100 1.186h18.648a.593.593 0 100-1.186H4.8z"/><path d="M21.577 24.247H16.81a1.172 1.172 0 01-1.171-1.172v-4.029a1.17 1.17 0 011.171-1.171h4.767c.647 0 1.172.524 1.172 1.171v4.03c0 .646-.524 1.171-1.172 1.171zm-3.595-2.344h2.424v-1.685h-2.424v1.685z"/><path d="M22.7 20.218h-7.013a1.172 1.172 0 010-2.343h7.014a1.172 1.172 0 010 2.343zm-11.262 4.029H6.67a1.172 1.172 0 01-1.17-1.172v-4.029a1.17 1.17 0 011.171-1.171h4.768a1.17 1.17 0 011.171 1.171v4.03c0 .646-.524 1.171-1.171 1.171zm-3.596-2.344h2.424v-1.685H7.842v1.685z"/><path d="M12.56 20.218H5.548a1.172 1.172 0 010-2.343h7.013a1.172 1.172 0 110 2.343zm9.017 0H16.81a1.172 1.172 0 01-1.171-1.172v-4.028a1.17 1.17 0 011.171-1.172h4.767c.647 0 1.172.524 1.172 1.171v4.03c0 .646-.524 1.171-1.172 1.171zm-3.595-2.344h2.424V16.19h-2.424v1.685z"/><path d="M22.7 16.19h-7.013a1.172 1.172 0 010-2.344h7.014a1.172 1.172 0 010 2.343zm-11.262 4.028H6.67a1.172 1.172 0 01-1.17-1.172v-4.028a1.17 1.17 0 011.171-1.172h4.768a1.17 1.17 0 011.171 1.171v4.03c0 .646-.524 1.171-1.171 1.171zm-3.596-2.344h2.424V16.19H7.842v1.685z"/><path d="M12.56 16.19H5.548a1.172 1.172 0 010-2.344h7.013a1.172 1.172 0 110 2.343zm73.316 8.057a7.564 7.564 0 01-6.405-11.587c.215-.34.59-.548.992-.548H91.29c.402 0 .776.207.991.548a7.564 7.564 0 01-6.404 11.587zm-4.721-9.79a5.22 5.22 0 109.443 0h-9.443z"/><path d="M85.767 14.456a1.172 1.172 0 01-1.172-1.172v-7.54a1.172 1.172 0 012.344 0v7.54c0 .647-.525 1.172-1.172 1.172z"/><path d="M85.767 14.456a1.172 1.172 0 01-.829-2L88.993 8.4a1.172 1.172 0 011.657 1.657l-4.055 4.055c-.22.22-.517.344-.828.343z"/><path d="M85.767 14.456c-.31 0-.61-.123-.829-.343l-4.055-4.055a1.172 1.172 0 111.64-1.675l.017.017 4.056 4.056a1.172 1.172 0 01-.83 2zm-24.91 34.97h-5.715a5.877 5.877 0 01-5.87-5.87V40.8c0-.647.525-1.172 1.172-1.172h15.111c.648 0 1.172.525 1.172 1.172v2.755a5.877 5.877 0 01-5.87 5.87zm-9.241-7.453v1.583a3.53 3.53 0 003.526 3.527h5.715a3.53 3.53 0 003.527-3.527v-1.583H51.616z"/><path d="M67.788 44.038h-2.233a1.172 1.172 0 010-2.343h2.233a1.172 1.172 0 110 2.343zm-17.726 0H47.83a1.172 1.172 0 010-2.343h2.232a1.172 1.172 0 010 2.343z"/><path d="M65.555 41.973H50.444a1.172 1.172 0 01-.966-1.836c1.64-2.385 4.905-3.867 8.522-3.867s6.882 1.482 8.521 3.867a1.172 1.172 0 01-.966 1.836zm-11.964-2.344h8.818a10.076 10.076 0 00-8.818 0z"/><path d="M56.569 38.703c-.287 0-.565-.106-.779-.297a3.329 3.329 0 114.42 0 1.172 1.172 0 11-1.557-1.751.985.985 0 10-1.305 0 1.172 1.172 0 01-.78 2.047zM13.903 52.334h-4.95a1.172 1.172 0 01-1.172-1.172V38.575c0-.647.525-1.171 1.172-1.171h4.95c.647 0 1.172.524 1.172 1.171v12.587c0 .648-.525 1.172-1.172 1.172zm-3.778-2.343h2.606V39.747h-2.606v10.244z"/><path d="M8.953 52.334h-4.95a1.172 1.172 0 01-1.171-1.172V38.575a1.17 1.17 0 011.171-1.171h4.95c.647 0 1.172.524 1.172 1.171v12.587c0 .648-.525 1.172-1.172 1.172zm-3.778-2.343h2.606V39.747H5.175v10.244zm19.599 2.343h-2.21a4.056 4.056 0 01-4.05-4.05v-4.11c0-.647.524-1.172 1.171-1.172h7.968c.647 0 1.172.525 1.172 1.172v4.11a4.055 4.055 0 01-4.05 4.05zm-3.916-6.988v2.937a1.709 1.709 0 001.707 1.707h2.21a1.709 1.709 0 001.707-1.707v-2.937h-5.624z"/><path d="M28.339 45.346H19a2.216 2.216 0 01-2.213-2.213v-1.216A2.216 2.216 0 0119 39.704h9.339a2.216 2.216 0 012.213 2.213v1.215a2.216 2.216 0 01-2.213 2.214zm-9.209-2.344h9.079v-.955H19.13v.955zm58.84 9.332h-6.034a1.172 1.172 0 01-1.172-1.172v-8.246c0-.647.525-1.172 1.172-1.172h6.034c.647 0 1.172.524 1.172 1.172v8.246c0 .648-.525 1.172-1.172 1.172zm-4.862-2.344h3.69v-5.902h-3.69v5.902z"/><path d="M77.97 44.087h-6.034a1.172 1.172 0 01-1.172-1.171v-3.603c0-.647.525-1.172 1.172-1.172h6.034c.647 0 1.172.525 1.172 1.172v3.603c0 .647-.525 1.172-1.172 1.172zm-4.862-2.343h3.69v-1.259h-3.69v1.259zm19.329 6.626c-1.915 0-3.414-1.842-3.414-4.195s1.5-4.196 3.414-4.196c1.915 0 3.414 1.843 3.414 4.196 0 2.353-1.5 4.196-3.414 4.196zm0-6.047c-.505 0-1.07.792-1.07 1.852s.565 1.852 1.07 1.852c.505 0 1.07-.792 1.07-1.852s-.565-1.852-1.07-1.852z"/><path d="M92.437 42.3c-.546 0-1.02-.377-1.142-.91l-1.791-7.813a3.01 3.01 0 115.867 0l-1.792 7.813c-.122.533-.596.91-1.142.91zm0-10.061a.666.666 0 00-.649.814l.649 2.83.649-2.83a.666.666 0 00-.65-.814zM84.008 42.3c-.546 0-1.02-.377-1.142-.91l-1.792-7.813a3.01 3.01 0 115.867 0L85.15 41.39c-.122.533-.596.91-1.142.91zm0-10.061a.666.666 0 00-.649.814l.649 2.831.649-2.83a.666.666 0 00-.65-.815z"/><path d="M86.7 46.088h-5.385a1.172 1.172 0 01-1.16-1.006 4.714 4.714 0 011.083-3.765c.757-.873 1.767-1.374 2.77-1.374 1.003 0 2.013.5 2.77 1.374a4.714 4.714 0 011.083 3.765 1.172 1.172 0 01-1.16 1.006zm-4.165-2.344h2.945a2.274 2.274 0 00-.473-.892c-.298-.343-.69-.566-1-.566-.308 0-.7.222-.998.566a2.277 2.277 0 00-.474.892z"/></g><defs><clipPath id="clip0"><path d="M0 0h100v100H0z"/></clipPath></defs></svg>