<svg width="100" height="100" xmlns="http://www.w3.org/2000/svg"><g clip-path="url(#clip0)"><path d="M46.666 87.18H16.765a4.511 4.511 0 01-4.507-4.507V71.057a4.512 4.512 0 014.507-4.507h29.9a4.512 4.512 0 014.507 4.507v11.616a4.511 4.511 0 01-4.506 4.506zM16.765 68.893a2.165 2.165 0 00-2.163 2.163v11.615a2.165 2.165 0 002.163 2.163h29.9a2.165 2.165 0 002.163-2.162V71.056a2.165 2.165 0 00-2.163-2.163h-29.9z"/><path d="M10.095 87.18H4.506A4.512 4.512 0 010 82.672V60.436a4.512 4.512 0 014.506-4.507h5.59a4.511 4.511 0 014.506 4.507v22.237a4.511 4.511 0 01-4.507 4.506zM4.506 58.272a2.165 2.165 0 00-2.162 2.163v22.237a2.165 2.165 0 002.162 2.162h5.59a2.165 2.165 0 002.162-2.162V60.436a2.165 2.165 0 00-2.163-2.163H4.506z"/><path d="M86.57 78.037H13.43a1.172 1.172 0 010-2.344h73.14a1.172 1.172 0 110 2.344zm-39.904-9.143H16.765a4.511 4.511 0 01-4.507-4.506V46.54a4.511 4.511 0 014.507-4.507h29.9a4.511 4.511 0 014.507 4.507v17.847a4.511 4.511 0 01-4.506 4.506zM16.765 44.378a2.165 2.165 0 00-2.163 2.162v17.847a2.165 2.165 0 002.163 2.163h29.9a2.165 2.165 0 002.163-2.163V46.541a2.165 2.165 0 00-2.163-2.163h-29.9z"/><path d="M83.235 68.894h-29.9a4.511 4.511 0 01-4.507-4.506V46.54a4.511 4.511 0 014.506-4.507h29.901a4.511 4.511 0 014.507 4.507v17.847a4.511 4.511 0 01-4.507 4.506zm-29.9-24.516a2.165 2.165 0 00-2.163 2.162v17.847a2.165 2.165 0 002.163 2.163h29.9a2.165 2.165 0 002.163-2.163V46.541a2.165 2.165 0 00-2.163-2.163h-29.9z"/><path d="M83.235 87.18h-29.9a4.511 4.511 0 01-4.507-4.507V71.057a4.512 4.512 0 014.506-4.507h29.901a4.512 4.512 0 014.507 4.507v11.616a4.511 4.511 0 01-4.507 4.506zm-29.9-18.286a2.165 2.165 0 00-2.163 2.163v11.615a2.165 2.165 0 002.163 2.163h29.9a2.165 2.165 0 002.163-2.162V71.056a2.165 2.165 0 00-2.163-2.163h-29.9z"/><path d="M95.493 87.18h-5.588a4.512 4.512 0 01-4.507-4.507V60.436a4.511 4.511 0 014.507-4.507h5.588A4.512 4.512 0 01100 60.436v22.237a4.512 4.512 0 01-4.507 4.506zm-5.588-28.907a2.165 2.165 0 00-2.163 2.163v22.237a2.165 2.165 0 002.162 2.162h5.59a2.165 2.165 0 002.162-2.162V60.436a2.165 2.165 0 00-2.163-2.163h-5.588zM52.74 68.894h-5.48a1.172 1.172 0 010-2.344h5.48a1.172 1.172 0 010 2.344zm18.71-30.255h-42.9a1.172 1.172 0 01-1.172-1.172V9.625c0-.647.524-1.172 1.171-1.172H71.45c.648 0 1.172.525 1.172 1.172v27.842c0 .647-.524 1.172-1.172 1.172zm-41.729-2.344H70.28V10.797H29.722v25.498z"/><path d="M67.547 34.735H32.453a1.172 1.172 0 01-1.172-1.172V13.528c0-.647.525-1.172 1.172-1.172h35.094c.647 0 1.172.525 1.172 1.172v20.035c0 .647-.525 1.172-1.172 1.172zm-33.922-2.344h32.75v-17.69h-32.75v17.69z"/><path d="M36.654 30.44a1.172 1.172 0 01-.83-2l6.027-6.027a1.172 1.172 0 011.657 0l3.657 3.657a1.172 1.172 0 01-1.657 1.657l-2.828-2.828-5.198 5.198c-.22.22-.518.343-.828.343z"/><path d="M63.346 30.38c-.31 0-.61-.123-.828-.343l-4.279-4.28c-1.605-1.604-3.21-3.209-4.813-4.814l-.752-.751-.71-.71-6.522 6.522a1.172 1.172 0 01-1.657-1.658l7.35-7.35a1.172 1.172 0 011.659.001 856.7 856.7 0 001.537 1.537l.753.752a4368.03 4368.03 0 004.813 4.813c1.425 1.427 2.85 2.854 4.278 4.28a1.172 1.172 0 01-.829 2z"/><path d="M59.069 26.1c-.31 0-.609-.123-.829-.343-1.607-1.604-3.212-3.21-4.814-4.814a1.172 1.172 0 01-.256-1.273 4.862 4.862 0 116.343 6.343 1.167 1.167 0 01-.444.087zm-3.351-6.179c1.18 1.182 2.362 2.363 3.544 3.545a2.52 2.52 0 10-3.544-3.545zm36.981 71.626a3.078 3.078 0 01-2.992-2.337l-.728-2.92a1.172 1.172 0 011.138-1.455h5.164a1.172 1.172 0 011.138 1.456l-.728 2.919a3.078 3.078 0 01-2.992 2.337zm-1.082-4.368l.365 1.464a.74.74 0 001.434 0l.365-1.464h-2.165zM7.301 91.547a3.078 3.078 0 01-2.992-2.337l-.728-2.92a1.172 1.172 0 011.138-1.455h5.164a1.172 1.172 0 011.138 1.456l-.728 2.919A3.078 3.078 0 017.3 91.547zm-1.082-4.368l.365 1.464a.74.74 0 001.434 0l.365-1.464H6.22z"/></g><defs><clipPath id="clip0"><path d="M0 0h100v100H0z"/></clipPath></defs></svg>