<svg width="100" height="100" fill="none" xmlns="http://www.w3.org/2000/svg"><g clip-path="url(#clip0)" fill="#1E2E36"><path d="M82.765 100h-65.53a1.172 1.172 0 01-1.172-1.172V1.172c0-.647.525-1.172 1.172-1.172h65.53c.647 0 1.172.525 1.172 1.172v97.656c0 .647-.525 1.172-1.172 1.172zm-64.358-2.344h63.186V2.344H18.407v95.312z"/><path d="M50 71.494c-.647 0-1.172-.375-1.172-.838V.838C48.828.375 49.352 0 50 0c.647 0 1.172.375 1.172.838v69.818c0 .463-.525.838-1.172.838zM50 100H17.235a1.172 1.172 0 01-1.172-1.172V84.575c0-.647.525-1.172 1.172-1.172H50c.647 0 1.172.525 1.172 1.172v14.253c0 .647-.525 1.172-1.172 1.172zm-31.593-2.344h30.421V85.747H18.407v11.91z"/><path d="M50 85.747H17.235a1.172 1.172 0 01-1.172-1.172V70.322c0-.647.525-1.172 1.172-1.172H50c.647 0 1.172.525 1.172 1.172v14.253c0 .647-.525 1.172-1.172 1.172zm-31.593-2.344h30.42V71.494h-30.42v11.91z"/><path d="M35.267 78.62h-3.299a1.172 1.172 0 010-2.343h3.299a1.172 1.172 0 010 2.344zm7.827-40.266a1.172 1.172 0 01-1.172-1.172v-2.87a1.172 1.172 0 112.344 0v2.87c0 .647-.525 1.172-1.172 1.172zm13.812 14.253a1.172 1.172 0 01-1.172-1.172v-2.87a1.172 1.172 0 112.344 0v2.87c0 .647-.525 1.172-1.172 1.172zM35.267 92.874h-3.299a1.172 1.172 0 110-2.344h3.299a1.172 1.172 0 010 2.344z"/></g><defs><clipPath id="clip0"><path fill="#fff" d="M0 0h100v100H0z"/></clipPath></defs></svg>