<svg width="100" height="100" xmlns="http://www.w3.org/2000/svg"><g clip-path="url(#clip0)"><path d="M93.545 42.075H6.455a1.172 1.172 0 01-1.172-1.172V15.43c0-.647.525-1.172 1.172-1.172h87.09c.647 0 1.172.524 1.172 1.172v25.472c0 .647-.525 1.172-1.172 1.172zM7.627 39.73h84.746V16.602H7.627v23.129z"/><path d="M93.545 67.547H6.455a1.172 1.172 0 01-1.172-1.172V40.903c0-.648.525-1.172 1.172-1.172h87.09c.647 0 1.172.524 1.172 1.172v25.472c0 .647-.525 1.172-1.172 1.172zM7.627 65.203h84.746V42.075H7.627v23.128z"/><path d="M93.545 93.019H6.455a1.172 1.172 0 01-1.172-1.172V66.375c0-.647.525-1.172 1.172-1.172h87.09c.647 0 1.172.525 1.172 1.172v25.472c0 .647-.525 1.172-1.172 1.172zM7.627 90.675h84.746V67.547H7.627v23.128zm44.565-61.336h-4.384a1.172 1.172 0 110-2.344h4.384a1.172 1.172 0 010 2.344zm0 25.471h-4.384a1.172 1.172 0 110-2.343h4.384a1.172 1.172 0 010 2.344z"/><path d="M52.192 80.283h-4.384a1.172 1.172 0 110-2.344h4.384a1.172 1.172 0 010 2.344zm44.683-63.68H3.125A3.129 3.129 0 010 13.478v-3.372a3.129 3.129 0 013.125-3.125h93.75A3.129 3.129 0 01100 10.106v3.372a3.129 3.129 0 01-3.125 3.125zM3.125 9.325c-.431 0-.78.35-.781.781v3.372c0 .43.35.78.781.78h93.75c.431 0 .78-.35.781-.78v-3.372c0-.431-.35-.78-.781-.781H3.125z"/></g><defs><clipPath id="clip0"><path d="M0 0h100v100H0z"/></clipPath></defs></svg>